<svg xmlns="http://www.w3.org/2000/svg" width="150" height="54.771" viewBox="0 0 255.952 54.771">
    <g id="Layer_2" data-name="Layer 2" transform="translate(-0.006 0.348)">
        <g id="Layer_1" data-name="Layer 1" transform="translate(0.006 -0.348)">
            <path id="Path_1" data-name="Path 1" d="M916.481,1.47c-8.49,0-15.071,3.937-15.071,14.525V32.3c0,10.581,6.582,14.525,15.071,14.525s15.134-3.937,15.134-14.525V15.988C931.61,5.407,924.971,1.47,916.481,1.47Zm5.537,30.821c0,4.257-2.094,6.151-5.537,6.151s-5.475-1.906-5.475-6.151v-16.3c0-4.242,2.029-6.151,5.475-6.151s5.537,1.908,5.537,6.151Z" transform="translate(-675.664 -1.015)" fill="#f79433"></path>
            <path id="Path_2" data-name="Path 2" d="M69.661,28.386V23.921a5.58,5.58,0,0,0-1.821-4.508,7.328,7.328,0,0,0-8.455-.005A4.728,4.728,0,0,0,58.221,20.9h-.606v-.831c0-1.195-1.057-2-2.63-2a3.311,3.311,0,0,0-1.705.416,21.7,21.7,0,0,0-43.213,2.66,12.522,12.522,0,0,0,0,24.555H60.646a12.522,12.522,0,0,0,9.016-17.305Z" transform="translate(-0.006 0.348)" fill="#f79433"></path>
            <path id="Path_3" data-name="Path 3" d="M338.056,11.811c0-1.906,1.783-3.691,6.151-3.691,5.044,0,6.213,2.339,8.427,2.339,2.707,0,3.814-3.383,3.814-5.044,0-4.8-8.981-5.414-12.241-5.414-7.678,0-15.748,3.506-15.748,12.735,0,14.4,19.5,13.1,19.5,20.536,0,2.953-3.135,4.06-5.965,4.06-5.723,0-7.568-4.55-10.458-4.55-2.339,0-4.185,3.075-4.185,5.167,0,4.06,6.762,8,14.826,8,8.921,0,15.379-4.8,15.379-13.656C357.565,16.794,338.056,17.964,338.056,11.811Z" transform="translate(-245.37 0.087)" fill="#f79433"></path>
            <path id="Path_4" data-name="Path 4" d="M493.487,1.47c-2.4,0-4.8.862-4.8,2.893V25.279L478.721,6.268c-2.324-4.49-3.629-4.8-7.082-4.8-2.4,0-4.8.924-4.8,2.953V43.491c0,1.968,2.4,2.953,4.8,2.953s4.8-.984,4.8-2.953V22.572l11.688,21.287c1.167,2.154,3.135,2.585,5.352,2.585,2.4,0,4.8-.984,4.8-2.953V4.358C498.285,2.332,495.886,1.47,493.487,1.47Z" transform="translate(-349.927 -1.015)" fill="#f79433"></path>
            <path id="Path_5" data-name="Path 5" d="M645.006,9.8c1.846,0,2.89-1.968,2.89-4.257,0-1.968-.861-4.122-2.89-4.122H623.1c-2.091,0-4.185.984-4.185,2.953V43.441c0,1.968,2.094,2.953,4.185,2.953h21.9c2.029,0,2.89-2.154,2.89-4.122,0-2.276-1.044-4.257-2.89-4.257H628.517V27.578h9.229c2.031,0,2.893-1.968,2.893-3.629,0-1.968-1.047-3.757-2.893-3.757h-9.229V9.8Z" transform="translate(-463.92 -0.977)" fill="#f79433"></path>
            <path id="Path_6" data-name="Path 6" d="M777.453,43.862a2.73,2.73,0,0,1,2.69-3.256,2.7,2.7,0,0,1,1.19.273l1.422.689V4.343c0-2.031-2.4-2.893-4.8-2.893s-4.8.867-4.8,2.893V19.419H760.917V4.343c0-2.031-2.4-2.893-4.8-2.893s-4.8.867-4.8,2.893V43.474c0,1.968,2.4,2.953,4.8,2.953s4.8-.984,4.8-2.953V26.8h12.241V43.474c0,1.966,2.4,2.95,4.793,2.953Z" transform="translate(-563.162 -1)" fill="#f79433"></path>
            <path id="Path_7" data-name="Path 7" d="M874.211,170.753a.857.857,0,0,0-.483-.751l-9.572-4.641a.869.869,0,0,0-1,.188.844.844,0,0,0-.215.751l2.031,10.441a.859.859,0,0,0,.734.686h.113a.844.844,0,0,0,.611-.263l2.337-2.419,2.554,3.321a1.292,1.292,0,0,0,.866.5,1.334,1.334,0,0,0,.17,0,1.29,1.29,0,0,0,.794-.27,1.307,1.307,0,0,0,.25-1.831l-2.555-3.321,2.938-1.638A.855.855,0,0,0,874.211,170.753Z" transform="translate(-646.814 -123.798)" fill="#f79433"></path>
        </g>
    </g>
</svg>